<mxfile host="app.diagrams.net" modified="2020-05-04T14:47:34.605Z" agent="5.0 (Macintosh)" etag="rfuDeHgF0GCy1MWgcnKH" version="13.0.6" type="github">
  <diagram id="6IjdEVraaFJfY3Wlal5V" name="Page-1">
    <mxGraphModel dx="946" dy="628" grid="1" gridSize="10" guides="1" tooltips="1" connect="1" arrows="1" fold="1" page="1" pageScale="1" pageWidth="827" pageHeight="1169" math="0" shadow="0">
      <root>
        <mxCell id="0" />
        <mxCell id="1" parent="0" />
        <mxCell id="kvhgRuYca-xQUabis5Qs-8" value="" style="rounded=0;whiteSpace=wrap;html=1;fillColor=#EDF3FC;strokeColor=none;" vertex="1" parent="1">
          <mxGeometry y="260" width="820" height="660" as="geometry" />
        </mxCell>
        <mxCell id="kvhgRuYca-xQUabis5Qs-4" value="" style="rounded=0;whiteSpace=wrap;html=1;fillColor=#FEFFDE;strokeColor=none;" vertex="1" parent="1">
          <mxGeometry y="140" width="820" height="120" as="geometry" />
        </mxCell>
        <mxCell id="kvhgRuYca-xQUabis5Qs-2" value="" style="rounded=0;whiteSpace=wrap;html=1;fillColor=#EAFFE9;strokeColor=none;" vertex="1" parent="1">
          <mxGeometry width="820" height="140" as="geometry" />
        </mxCell>
        <mxCell id="YoEGFT4kN-MiwS7PGK1a-5" style="edgeStyle=orthogonalEdgeStyle;rounded=0;orthogonalLoop=1;jettySize=auto;html=1;exitX=1;exitY=0.5;exitDx=0;exitDy=0;" parent="1" source="YoEGFT4kN-MiwS7PGK1a-2" target="YoEGFT4kN-MiwS7PGK1a-3" edge="1">
          <mxGeometry relative="1" as="geometry" />
        </mxCell>
        <mxCell id="YoEGFT4kN-MiwS7PGK1a-2" value="Dependency Resolution" style="rounded=1;whiteSpace=wrap;html=1;" parent="1" vertex="1">
          <mxGeometry x="30" y="40" width="120" height="60" as="geometry" />
        </mxCell>
        <mxCell id="YoEGFT4kN-MiwS7PGK1a-7" style="edgeStyle=orthogonalEdgeStyle;rounded=0;orthogonalLoop=1;jettySize=auto;html=1;exitX=1;exitY=0.5;exitDx=0;exitDy=0;entryX=0;entryY=0.5;entryDx=0;entryDy=0;" parent="1" source="YoEGFT4kN-MiwS7PGK1a-3" target="YoEGFT4kN-MiwS7PGK1a-6" edge="1">
          <mxGeometry relative="1" as="geometry" />
        </mxCell>
        <mxCell id="YoEGFT4kN-MiwS7PGK1a-3" value="Compile" style="rounded=1;whiteSpace=wrap;html=1;" parent="1" vertex="1">
          <mxGeometry x="230" y="40" width="120" height="60" as="geometry" />
        </mxCell>
        <mxCell id="YoEGFT4kN-MiwS7PGK1a-9" style="edgeStyle=orthogonalEdgeStyle;rounded=0;orthogonalLoop=1;jettySize=auto;html=1;exitX=1;exitY=0.5;exitDx=0;exitDy=0;" parent="1" source="YoEGFT4kN-MiwS7PGK1a-6" target="YoEGFT4kN-MiwS7PGK1a-8" edge="1">
          <mxGeometry relative="1" as="geometry" />
        </mxCell>
        <mxCell id="YoEGFT4kN-MiwS7PGK1a-6" value="Documentation Generation" style="rounded=1;whiteSpace=wrap;html=1;" parent="1" vertex="1">
          <mxGeometry x="414" y="40" width="120" height="60" as="geometry" />
        </mxCell>
        <mxCell id="YoEGFT4kN-MiwS7PGK1a-8" value="Packaging" style="rounded=1;whiteSpace=wrap;html=1;" parent="1" vertex="1">
          <mxGeometry x="590" y="40" width="120" height="60" as="geometry" />
        </mxCell>
        <mxCell id="YoEGFT4kN-MiwS7PGK1a-12" value="Repo" style="shape=cylinder;whiteSpace=wrap;html=1;boundedLbl=1;backgroundOutline=1;" parent="1" vertex="1">
          <mxGeometry x="70" y="160" width="60" height="80" as="geometry" />
        </mxCell>
        <mxCell id="YoEGFT4kN-MiwS7PGK1a-13" value="" style="endArrow=none;html=1;entryX=0.5;entryY=1;entryDx=0;entryDy=0;exitX=0.5;exitY=0;exitDx=0;exitDy=0;endFill=0;startArrow=classic;startFill=1;" parent="1" source="YoEGFT4kN-MiwS7PGK1a-12" target="YoEGFT4kN-MiwS7PGK1a-8" edge="1">
          <mxGeometry width="50" height="50" relative="1" as="geometry">
            <mxPoint x="390" y="360" as="sourcePoint" />
            <mxPoint x="440" y="310" as="targetPoint" />
            <Array as="points">
              <mxPoint x="100" y="120" />
              <mxPoint x="650" y="120" />
            </Array>
          </mxGeometry>
        </mxCell>
        <mxCell id="YoEGFT4kN-MiwS7PGK1a-14" value="Push" style="text;html=1;strokeColor=none;fillColor=none;align=center;verticalAlign=middle;whiteSpace=wrap;rounded=0;" parent="1" vertex="1">
          <mxGeometry x="340" y="120" width="40" height="20" as="geometry" />
        </mxCell>
        <mxCell id="YoEGFT4kN-MiwS7PGK1a-42" style="edgeStyle=orthogonalEdgeStyle;rounded=0;comic=0;orthogonalLoop=1;jettySize=auto;html=1;exitX=0.5;exitY=1;exitDx=0;exitDy=0;entryX=1;entryY=0.5;entryDx=0;entryDy=0;startArrow=classic;startFill=1;endArrow=none;endFill=0;" parent="1" source="YoEGFT4kN-MiwS7PGK1a-16" target="YoEGFT4kN-MiwS7PGK1a-40" edge="1">
          <mxGeometry relative="1" as="geometry" />
        </mxCell>
        <mxCell id="YoEGFT4kN-MiwS7PGK1a-16" value="Central Repo" style="shape=cylinder;whiteSpace=wrap;html=1;boundedLbl=1;backgroundOutline=1;" parent="1" vertex="1">
          <mxGeometry x="570" y="160" width="60" height="80" as="geometry" />
        </mxCell>
        <mxCell id="YoEGFT4kN-MiwS7PGK1a-17" value="" style="endArrow=classic;html=1;exitX=0;exitY=0.5;exitDx=0;exitDy=0;entryX=1;entryY=0.5;entryDx=0;entryDy=0;comic=0;dashed=1;" parent="1" source="YoEGFT4kN-MiwS7PGK1a-16" target="YoEGFT4kN-MiwS7PGK1a-22" edge="1">
          <mxGeometry width="50" height="50" relative="1" as="geometry">
            <mxPoint x="400" y="300" as="sourcePoint" />
            <mxPoint x="450" y="250" as="targetPoint" />
          </mxGeometry>
        </mxCell>
        <mxCell id="YoEGFT4kN-MiwS7PGK1a-18" value="Pull / Merge" style="text;html=1;strokeColor=none;fillColor=none;align=center;verticalAlign=middle;whiteSpace=wrap;rounded=0;" parent="1" vertex="1">
          <mxGeometry x="440" y="180" width="120" height="20" as="geometry" />
        </mxCell>
        <mxCell id="kvhgRuYca-xQUabis5Qs-6" style="edgeStyle=orthogonalEdgeStyle;rounded=0;comic=0;orthogonalLoop=1;jettySize=auto;html=1;exitX=0;exitY=0.5;exitDx=0;exitDy=0;entryX=1;entryY=0.5;entryDx=0;entryDy=0;startArrow=classic;startFill=1;endArrow=none;endFill=0;" edge="1" parent="1" source="YoEGFT4kN-MiwS7PGK1a-22" target="YoEGFT4kN-MiwS7PGK1a-12">
          <mxGeometry relative="1" as="geometry" />
        </mxCell>
        <mxCell id="YoEGFT4kN-MiwS7PGK1a-22" value="Merge / Conflict Resolution" style="whiteSpace=wrap;html=1;" parent="1" vertex="1">
          <mxGeometry x="280" y="170" width="120" height="60" as="geometry" />
        </mxCell>
        <mxCell id="kvhgRuYca-xQUabis5Qs-7" style="edgeStyle=orthogonalEdgeStyle;rounded=0;comic=0;orthogonalLoop=1;jettySize=auto;html=1;exitX=0.5;exitY=0;exitDx=0;exitDy=0;entryX=0.5;entryY=1;entryDx=0;entryDy=0;startArrow=classic;startFill=1;endArrow=none;endFill=0;" edge="1" parent="1" source="YoEGFT4kN-MiwS7PGK1a-25" target="YoEGFT4kN-MiwS7PGK1a-22">
          <mxGeometry relative="1" as="geometry" />
        </mxCell>
        <mxCell id="YoEGFT4kN-MiwS7PGK1a-25" value="Pull Request" style="whiteSpace=wrap;html=1;" parent="1" vertex="1">
          <mxGeometry x="240" y="280" width="200" height="60" as="geometry" />
        </mxCell>
        <mxCell id="YoEGFT4kN-MiwS7PGK1a-39" style="edgeStyle=orthogonalEdgeStyle;rounded=0;comic=0;orthogonalLoop=1;jettySize=auto;html=1;exitX=0.5;exitY=0;exitDx=0;exitDy=0;entryX=0.5;entryY=1;entryDx=0;entryDy=0;startArrow=classic;startFill=1;endArrow=none;endFill=0;" parent="1" source="YoEGFT4kN-MiwS7PGK1a-29" target="YoEGFT4kN-MiwS7PGK1a-25" edge="1">
          <mxGeometry relative="1" as="geometry" />
        </mxCell>
        <mxCell id="YoEGFT4kN-MiwS7PGK1a-29" value="Docker Build" style="whiteSpace=wrap;html=1;" parent="1" vertex="1">
          <mxGeometry x="240" y="370" width="200" height="60" as="geometry" />
        </mxCell>
        <mxCell id="YoEGFT4kN-MiwS7PGK1a-38" style="edgeStyle=orthogonalEdgeStyle;rounded=0;comic=0;orthogonalLoop=1;jettySize=auto;html=1;exitX=0.5;exitY=0;exitDx=0;exitDy=0;entryX=0.5;entryY=1;entryDx=0;entryDy=0;startArrow=classic;startFill=1;endArrow=none;endFill=0;" parent="1" source="YoEGFT4kN-MiwS7PGK1a-30" target="YoEGFT4kN-MiwS7PGK1a-29" edge="1">
          <mxGeometry relative="1" as="geometry" />
        </mxCell>
        <mxCell id="YoEGFT4kN-MiwS7PGK1a-45" style="edgeStyle=orthogonalEdgeStyle;rounded=0;comic=0;orthogonalLoop=1;jettySize=auto;html=1;exitX=0;exitY=0.5;exitDx=0;exitDy=0;entryX=0.5;entryY=1;entryDx=0;entryDy=0;startArrow=classic;startFill=1;endArrow=none;endFill=0;dashed=1;" parent="1" source="YoEGFT4kN-MiwS7PGK1a-30" target="YoEGFT4kN-MiwS7PGK1a-12" edge="1">
          <mxGeometry relative="1" as="geometry" />
        </mxCell>
        <mxCell id="YoEGFT4kN-MiwS7PGK1a-30" value="Installation" style="whiteSpace=wrap;html=1;" parent="1" vertex="1">
          <mxGeometry x="240" y="460" width="200" height="60" as="geometry" />
        </mxCell>
        <mxCell id="YoEGFT4kN-MiwS7PGK1a-37" style="edgeStyle=orthogonalEdgeStyle;rounded=0;comic=0;orthogonalLoop=1;jettySize=auto;html=1;exitX=0.5;exitY=0;exitDx=0;exitDy=0;entryX=0.5;entryY=1;entryDx=0;entryDy=0;startArrow=classic;startFill=1;endArrow=none;endFill=0;" parent="1" source="YoEGFT4kN-MiwS7PGK1a-32" target="YoEGFT4kN-MiwS7PGK1a-30" edge="1">
          <mxGeometry relative="1" as="geometry" />
        </mxCell>
        <mxCell id="YoEGFT4kN-MiwS7PGK1a-32" value="Data File Loading" style="whiteSpace=wrap;html=1;" parent="1" vertex="1">
          <mxGeometry x="240" y="550" width="200" height="60" as="geometry" />
        </mxCell>
        <mxCell id="YoEGFT4kN-MiwS7PGK1a-36" style="edgeStyle=orthogonalEdgeStyle;rounded=0;comic=0;orthogonalLoop=1;jettySize=auto;html=1;exitX=0.5;exitY=0;exitDx=0;exitDy=0;entryX=0.5;entryY=1;entryDx=0;entryDy=0;startArrow=classic;startFill=1;endArrow=none;endFill=0;" parent="1" source="YoEGFT4kN-MiwS7PGK1a-33" target="YoEGFT4kN-MiwS7PGK1a-32" edge="1">
          <mxGeometry relative="1" as="geometry" />
        </mxCell>
        <mxCell id="YoEGFT4kN-MiwS7PGK1a-33" value="Integration Testing" style="whiteSpace=wrap;html=1;" parent="1" vertex="1">
          <mxGeometry x="240" y="640" width="200" height="60" as="geometry" />
        </mxCell>
        <mxCell id="YoEGFT4kN-MiwS7PGK1a-35" style="edgeStyle=orthogonalEdgeStyle;rounded=0;comic=0;orthogonalLoop=1;jettySize=auto;html=1;exitX=0.5;exitY=0;exitDx=0;exitDy=0;entryX=0.5;entryY=1;entryDx=0;entryDy=0;startArrow=classic;startFill=1;endArrow=none;endFill=0;" parent="1" source="YoEGFT4kN-MiwS7PGK1a-34" target="YoEGFT4kN-MiwS7PGK1a-33" edge="1">
          <mxGeometry relative="1" as="geometry" />
        </mxCell>
        <mxCell id="YoEGFT4kN-MiwS7PGK1a-34" value="Security Testing" style="whiteSpace=wrap;html=1;" parent="1" vertex="1">
          <mxGeometry x="240" y="730" width="200" height="60" as="geometry" />
        </mxCell>
        <mxCell id="YoEGFT4kN-MiwS7PGK1a-41" style="edgeStyle=orthogonalEdgeStyle;rounded=0;comic=0;orthogonalLoop=1;jettySize=auto;html=1;exitX=0.5;exitY=0;exitDx=0;exitDy=0;entryX=0.5;entryY=1;entryDx=0;entryDy=0;startArrow=classic;startFill=1;endArrow=none;endFill=0;" parent="1" source="YoEGFT4kN-MiwS7PGK1a-40" target="YoEGFT4kN-MiwS7PGK1a-34" edge="1">
          <mxGeometry relative="1" as="geometry" />
        </mxCell>
        <mxCell id="YoEGFT4kN-MiwS7PGK1a-40" value="Passed?" style="rhombus;whiteSpace=wrap;html=1;" parent="1" vertex="1">
          <mxGeometry x="300" y="820" width="80" height="80" as="geometry" />
        </mxCell>
        <mxCell id="YoEGFT4kN-MiwS7PGK1a-47" style="edgeStyle=orthogonalEdgeStyle;rounded=0;comic=0;orthogonalLoop=1;jettySize=auto;html=1;exitX=0.5;exitY=1;exitDx=0;exitDy=0;entryX=0;entryY=0.5;entryDx=0;entryDy=0;startArrow=classic;startFill=1;endArrow=none;endFill=0;" parent="1" source="YoEGFT4kN-MiwS7PGK1a-46" target="YoEGFT4kN-MiwS7PGK1a-40" edge="1">
          <mxGeometry relative="1" as="geometry" />
        </mxCell>
        <mxCell id="YoEGFT4kN-MiwS7PGK1a-46" value="Reject Pull Request" style="whiteSpace=wrap;html=1;" parent="1" vertex="1">
          <mxGeometry x="40" y="730" width="120" height="60" as="geometry" />
        </mxCell>
        <mxCell id="YoEGFT4kN-MiwS7PGK1a-49" style="edgeStyle=orthogonalEdgeStyle;rounded=0;comic=0;orthogonalLoop=1;jettySize=auto;html=1;exitX=0.5;exitY=1;exitDx=0;exitDy=0;entryX=0.5;entryY=0;entryDx=0;entryDy=0;startArrow=classic;startFill=1;endArrow=none;endFill=0;" parent="1" source="YoEGFT4kN-MiwS7PGK1a-48" target="YoEGFT4kN-MiwS7PGK1a-46" edge="1">
          <mxGeometry relative="1" as="geometry" />
        </mxCell>
        <mxCell id="YoEGFT4kN-MiwS7PGK1a-48" value="Intimation" style="whiteSpace=wrap;html=1;" parent="1" vertex="1">
          <mxGeometry x="40" y="620" width="120" height="60" as="geometry" />
        </mxCell>
        <mxCell id="YoEGFT4kN-MiwS7PGK1a-50" value="No" style="text;html=1;align=center;verticalAlign=middle;resizable=0;points=[];autosize=1;" parent="1" vertex="1">
          <mxGeometry x="213" y="836" width="30" height="20" as="geometry" />
        </mxCell>
        <mxCell id="YoEGFT4kN-MiwS7PGK1a-51" value="Yes" style="text;html=1;align=center;verticalAlign=middle;resizable=0;points=[];autosize=1;" parent="1" vertex="1">
          <mxGeometry x="464" y="839" width="40" height="20" as="geometry" />
        </mxCell>
        <mxCell id="YoEGFT4kN-MiwS7PGK1a-52" value="Merge Pull Request" style="text;html=1;align=center;verticalAlign=middle;resizable=0;points=[];autosize=1;rotation=-90;" parent="1" vertex="1">
          <mxGeometry x="520" y="520" width="120" height="20" as="geometry" />
        </mxCell>
        <mxCell id="YoEGFT4kN-MiwS7PGK1a-54" style="edgeStyle=orthogonalEdgeStyle;rounded=0;comic=0;orthogonalLoop=1;jettySize=auto;html=1;exitX=0.5;exitY=0;exitDx=0;exitDy=0;entryX=1;entryY=0.5;entryDx=0;entryDy=0;startArrow=classic;startFill=1;endArrow=none;endFill=0;" parent="1" source="YoEGFT4kN-MiwS7PGK1a-53" target="YoEGFT4kN-MiwS7PGK1a-16" edge="1">
          <mxGeometry relative="1" as="geometry" />
        </mxCell>
        <mxCell id="YoEGFT4kN-MiwS7PGK1a-53" value="Call Deployment Hook" style="whiteSpace=wrap;html=1;" parent="1" vertex="1">
          <mxGeometry x="680" y="280" width="120" height="60" as="geometry" />
        </mxCell>
        <mxCell id="kvhgRuYca-xQUabis5Qs-3" value="User Land" style="text;html=1;align=center;verticalAlign=middle;resizable=0;points=[];autosize=1;" vertex="1" parent="1">
          <mxGeometry x="740" y="110" width="70" height="20" as="geometry" />
        </mxCell>
        <mxCell id="kvhgRuYca-xQUabis5Qs-9" value="Containerized Environment" style="text;html=1;align=center;verticalAlign=middle;resizable=0;points=[];autosize=1;" vertex="1" parent="1">
          <mxGeometry x="660" y="890" width="160" height="20" as="geometry" />
        </mxCell>
      </root>
    </mxGraphModel>
  </diagram>
</mxfile>
